/* XPM */
static char *_ebb56a8bbb64310b66ba6666be23e85DNAPGAuumlH2LBQu[] = {
/* columns rows colors chars-per-pixel */
"128 32 7 1 ",
"  c None",
". c #2D2D2D",
"X c #458DCE",
"o c #3A97EA",
"O c #4AA5F7",
"+ c #94CBFF",
"@ c white",
/* pixels */
"                                                                                                                                ",
"                                                                                                                                ",
"                                                                                                                                ",
"                                                                                                                                ",
"                                                                                                                                ",
"                                                                                                                                ",
"                                                                                                                                ",
"                                                                                                                                ",
"                                                                                                                                ",
"            ooooooo                                                                                                             ",
"          ooooooooooo                                                                                       ooooooo             ",
"         oooOOOOOOO@oo                      ooooooo                                                       ooooooooooo           ",
"        ooOOOOOOOOOO@oo                   ooooooooooo                       ooooooo                      oooOOOOOOO@oo          ",
"        ooOOOOOOOOOOOoo                  oooOOOOOOO@oo                    ooooooooooo                   ooOOOOOOOOOO@oo         ",
"       ooOOOOOOOOOOOOOoo                ooOOOOOOOOOO@oo                  oooOOOOOOO@oo                 ooOOOOOOOOOOOOOoo        ",
"       ooOOOOOO.OOOOO.oo               ooOOOOOOOOOOOOOoo                ooOOOOOOOOOO@oo                ooOOOOOOOOOOOOOoo        ",
"      ooOOOOOOO.OOOOO.Ooo              ooOOOOOO.OOOOO.oo               ooOOOOOOOOOOOOOoo              ooOOOOOOO.OOOOO.Ooo       ",
"      ooOOOOOOO.OOOOO.Ooo             ooOOOOOOO.OOOOO.Ooo             ooOOOOOOO.OOOOO.Ooo             ooOOOOOOO.OOOOO.Ooo       ",
"      ooOOOOOOOOOOOOOOOoo             ooOOOOOOO.OOOOO.Ooo             ooOOOOOOO.OOOOO.Ooo             ooOOOOOOO.OOOOO.Ooo       ",
"      ooOOOOOOOOOOOOOOOoo             ooOOOOOOOOOOOOOOOoo             ooOOOOOOO.OOOOO.Ooo             ooOOOOOOOOOOOOOOOoo       ",
"      XoOOOOOOOOOOOOOOOoo             ooOOOOOOOOOOOOOOOoo             ooOOOOOOOOOOOOOOOoo             ooOOOOOOOOOOOOOOOoo       ",
"      XXOOOOOOOOOOOOOOOoo             XoOOOOOOOOOOOOOOOoo             ooOOOOOOOOOOOOOOOoo             XoOOOOOOOOOOOOOOOoo       ",
"       XXOOOOOOOOOOOOOoo              XXXOOOOOOOOOOOOOooo             XooOOOOOOOOOOOOOooo             XXoOOOOOOOOOOOOOooo       ",
"        XXooooooooooooo                XXXoooooooooooooo              XXXoooooooooooooooo              XXooooooooooooooo        ",
"         XXXXXXXXXXXXX                   XXXXXXXXXXXXX                  XXXXXXXXXXXXXXX                 XXXXXXXXXXXXXXX         ",
"                                                                                                                                ",
"                                                                                                                                ",
"                                                                                                                                ",
"                                                                                                                                ",
"                                                                                                                                ",
"                                                                                                                                ",
"                                                                                                                                "
};
