/* XPM */
static char *bc0a99f9a80c4f1592e11742dd181e714V5hZh6o3u6suUr6[] = {
/* columns rows colors chars-per-pixel */
"128 128 8 1 ",
"  c black",
". c #311D0A",
"X c #4B3724",
"o c #075309",
"O c #126414",
"+ c #008503",
"@ c #71BF57",
"# c #48C74A",
/* pixels */
"@@@@@@@@@@@@@@@@@@@@@@@@@@@@@@@@@@@@@@@@@@@@@@@@@@@@@@@@@@@@@@@@@@@@@@@@@@@@@@@@@@@@@@@@@@@@@@@@@@@@@@@@@@@@@@@@@@@@@@@@@@@@@@@@",
"@@@@@@@@@@@@@@@@@@@@@@@@@@@@@@@@@@@@@@@@@@@@@@@@@@@@@         @@@@@@@@@@@@@@@@        @@@@@@@@@@@@@     @@@@@@@@@@@@@@@@@@@@@@@@",
"@@@@@@@@@@@@@@@@@@@@@@@@@@@@@@@@@@@@@@@@@@@@@@@@      ########  @@@@@@@@      #######   @@@@@@@@   #####    @@@@@@@@@@@@@@@@@@@@",
"@@@@@@@@@@@@@@@@@@@@@@@@@@@@@@@@@@@@@@@@@@@@@    #######+++++++  @@@     #####+++++++++  @@@@@  ###+++++####   @@@@@@@@@@@@@@@@@",
"@@@@@@@@@@@@@@@@@@@@@@@@@@@@@@@@@@@@@@@@@@@@ #####++++++++++++++     ###+++++++++++++++++  @  #++++++++++++++++  @@@@@@@@@@@@@@@",
"@@@@@@@@@@@@@@@@@@@@@@@@      @@@@@@@@@@@@  ##+++++++++++++++++++ ###+++++++++++++++++++++   #++++++ooo+++++++++  @@@@@@@@@@@@@@",
"@@@@@@@@@@@@@@@@@@@@@@@  #####   @@@@@@@@ ###++++++++++oooo++++++ #++++++++++++++++++++++++ #+++++++++oo++++++++++  @@@@@@@@@@@@",
"@@@@@@@@@@@@@@@@@@@@   ###+++###         ##++++++++++++++++oo+++++ +++++++++++oooooo++++++++ ++++++++++o++++++++++++ @@@@@@@@@@@",
"@@@@@@@@@@@@@@@@@@@ ####++++++++++++++++    ++++++++++++++++o+++++  ++++++++ooo+++++++++++++  +++++++++o++++++     ++ @@@@@@@@@@",
"@@@@@@@@@@@@@@@@@@ ####+++++++++++++++++++ + ++     ++++++++oo+++++     +++++++++++++++++++     ++++++++++++  #####    @@@@@@@@@",
"@@@@@@@@@@@@@@@@@ ##+++++++++++++++++++++++    #####   ++++++++++  #####   ++++++++++++++  #####   ++++++   ###+++###         @@",
"@@@@@@@@@@@@@@@@  #+++++++++++++++++++++++   ###+++###           ###+++###         +++   ###+++###         ##++++++++++++++++   ",
"@@@@@@@@@@@@@@  ###+++++++++++++++++++++  ####++++++++++++++++  ##++++++++++++++++    ####++++++++++++++++  +++++++++++++++++++ ",
"@@@@@@@@@@@@@ ###++++++++++++++++++++ooo ####+++++++++++++++++++ +++++++++++++++++++ ####+++++++++++++++++++ +++++++++++++++++++",
"@@@@@@@@@@@@ ##++++++++++++++++++++++++ ##+++++++++++++++++++++++ +++++++++++++++++ ##+++++++++++++++++++++++ ++++++++++++++++++",
"@@@@@@@@@@@@ ##+++++++++++++++++++++++  #++++++++++++++++++++++++  +++++++++++++++  #++++++++++++++++++++++++  +++++++++++++++++",
"@@@@@@@@@@@ ##+++++++++oooo+++++++++  ###+++++++++++++++++++++++++ +++++++++++++  ###+++++++++++++++++++++++++ +++++++++++ooooo+",
"@@@@@@@@@@@ +++++++++ooo+++++++++++ ###++++++++++++++++++++ooooo++  +++++++++++      ++++++++++++++++++ooooo++  ++++++++++++++oo",
"@@@@@@@@@@@ +++++++++o++++++++++++ ##++++++++++++++++++++++++++oo++  +++++++++  #####   +++++++++++++++++++oo++  ++++++++++++++o",
"@@@@@@@@@@@ +++++++++o++++++++++++ ##+++++++++++++++++++++++++++oo++  +++++   ###+++###         ++++++++++++oo++  ++++++++++++++",
"@@@@@@@@@@@ ++     oo++++++++++++ ##+++++++++oooo++++++++++++++++o+++  ++  ####++++++++++++++++  ++++++++++++o+++  +++++++++++++",
"@@@@@@@@@     #####   +++++++++++ +++++++++ooo+++++++++++++++++++o++++ ++ ####+++++++++++++++++++ +++++++++++o++++ +++++++++++++",
"@@@@@@@     ###+++###         +++ +++++++++o+++++++++++++++++++++o++++   ##+++++++++++++++++++++++ ++++++++++o++++  ++++++++++++",
"@@@@@@@  ####++++++++++++++++  ++ +++++++++o+++++++++++++++++++++o+++++  #++++++++++++++++++++++++  +++++++++o+++++  +++++++++++",
"@@@@@@@ ####+++++++++++++++++++ + +++++++oo++++++++++++++++++++++o+++  ###+++++++++++++++++++++++++ +++++++++o++++++ +++++++++++",
"@@@@@@ ##+++++++++++++++++++++++  +++++++o+++++++++++++++++++++++o++ ###++++++++++++++++++++ooooo++  ++++++++o++++++ +++++++++++",
"@@@@@  #++++++++++++++++++++++++  +++++++o+++++++++++++++++++++++++ ##++++++++++++++++++++++++++oo++  ++++++++++++++ +++++++++++",
"@@@  ###+++++++++++++++++++++++++ +++++++++++++++++++++++     +++++ ##+++++++++++++++++++++++++++oo++  +++++     +++ +++++++++++",
"@@ ###++++++++++++++++++++ooooo++  ++++++++++++++++++++  #####   + ##+++++++++oooo++++++++++++++++o+++  ++  #####    +++++++++++",
"@ ##++++++++++++++++++++++++++oo++  ++++++++++++++++   ###+++###         +++ooo+++++++++++++++++++o++++   ###+++###         ++++",
"@ ##+++++++++++++++++++++++++++oo++  +++++++++++++  ####++++++++++++++++  ++o+++++++++++++++++++++o++  ####++++++++++++++++  +++",
" ##+++++++++oooo++++++++++++++++o+++  ++++++++++++ ####+++++++++++++++++++ +o+++++++++++++++++++++o++ ####+++++++++++++++++++ +O",
" +++++++++ooo+++++++++++++++++++o++++    OOO+++++ ##+++++++++++++++++++++++ ++++++++++++++++++++++o+ ##+++++++++++++++++++++++ O",
" +++++++++o+++++++++++++++++++++o++++         O+  #++++++++++++++++++++++++  +++++++++++++++++++++o  #++++++++++++++++++++++++  ",
" +++++++++o+++++++++++++++++++++o+++++  +++++   ###+++++++++++++++++++++++++ ++++++++++++++++++++  ###+++++++++++++++++++++++++ ",
" +++++++oo++++++++++++++++++++++o++++++ +++++++ #++++++++++++++++++++ooooo++  ++++++++++++++++++ ###++++++++++++++++++++ooooo++ ",
" +++++++o+++++++++++++++++++++++o++++++ ++++++++ ++++++++++++++++++++++++oo++  ++++++++++++++++ ##++++++++++++++++++++++++++oo++",
"++++++++o++++++++++++++++++++++++++++++ ++++++++  ++++++++++++++++++++++++oo++  +++++++++++++++ ##+++++++++++++++++++++++++++oo+",
"+++++++++++++++++++++++++++++++++++++++ +++++++++ +++++oooo++++++++++++++++o+++  +++++++++++++ ##+++++++++oooo++++++++++++++++o+",
" ++++++++++++++++++++++++++++++++++++++ ++ooooo++  ++ooo+++++++++++++++++++o++++ ++oooooo++o++ +++++++++ooo+++++++++++++++++++o+",
" +++++++++++++++++++++++++++++++++++++ +++++++oo++  +o+++++++++++++++++++++o++++  ++oo++ooo+++ +++++++++o+++++++++++++++++++++o+",
"@ ++++++++++++++++++++++++++++++++++++ ++++++++oo++  o+++++++++++++++++++++o+++++  +++++++++++ +++++++++o+++++++++++++++++++++o+",
"@@  ++     ++++++oooooo++o++++++++++  ++++++++++o+++  +++++++++++++++++++++o++++++ O++     +++ +++++++oo++++++++++++++++++++++o+",
"@@@@  #####   ++++oo++ooo++++++OOOO  +++++++++++o++++ +++++++++++++++++++++o++++++ O  #####    +++++++o+++++++++++++++++++++++o+",
"@   ###+++###         ++++++++OOO  +++++++++++++o++++  ++++++++++++++++++++++++++   ###+++###         o+++++++++++++++++++++++++",
" ####++++++++++++++++  +++++OOO  +++++++++++++++o+++++  +++++++++++++++++++++++  ####++++++++++++++++  +++++++++++++++++++++++++",
"####+++++++++++++++++++ OOOOO  +++++++++++++++++o++++++ +     +++++++++++++++++ ####+++++++++++++++++++ ++++++++++++++++++++++++",
"#+++++++++++++++++++++++     +++++++++++++++++++o++++++  #####   +++++++++++++ ##+++++++++++++++++++++++ +++++++++++++++++++++++",
"++++++++++++++++++++++++  X ++++++++++++++++++++++++   ###+++###         ++++  #++++++++++++++++++++++++  ++++++++++++++++++++++",
"+++++++++++++++++++++++++ X ++++++++++++++++++++++  ####++++++++++++++++  +  ###+++++++++++++++++++++++++ ++++     oo++o++++++++",
"++++++++++++++++++ooooo++  +++++++++++++++++++++++ ####+++++++++++++++++++ ###++++++++++++++++++++ooooo++  +  #####   o++++++OOO",
"++++++++++++++++++++++oo++  +++++++++++++++++++++ ##+++++++++++++++++++++++ ++++++++++++++++++++++++++oo+   ###+++###         O ",
"+++++++++++++++++++++++oo++  +++++++++++++++++++  #++++++++++++++++++++++++  ++++++++++++++++++++++++++  ####++++++++++++++++  @",
"++++oooo++++++++++++++++o+++  +++oooooo++o++++  ###+++++++++++++++++++++++++ +++++++oooo+++++++++++++++ ####+++++++++++++++++++ ",
"++ooo+++++++++++++++++++o++++ +     ++ooo++++ ###++++++++++++++++++++ooooo++  ++++ooo+++++++++++++++++ ##+++++++++++++++++++++++",
"++o+++++++++++++++++++++o++++  #####   +++++ ##++++++++++++++++++++++++++oo++  +++o++++++++++++++++++  #++++++++++++++++++++++++",
"++o+++++++++++++++++++++o+++++  +++###         +++++++++++++++++++++++++++oo++  ++o++++++++++++++++  ###++++++++++++++++++++++++",
"oo++++++++++++++++++++++o++++++ ++++++++++++++  +++++++oooo++++++++++++++++o+++  o++++++++++++++++ ###++++++++++++++++++++ooooo+",
"o+++++++++++++++++++++++o++++++ ++++++++++++++++ ++++ooo+++++++++++++++++++o++++ ++++++++++++++++ ##++++++++++++++++++++++++++oo",
"o++++++++++++++++++++++++++++++ +++++++++++++++++ +++o+++++++++++++++++++++o++++  +++++++++++++++ ##+++++++++++++++++++++++++++o",
"+++++++++++++++++++++++++++++++ +++++++++++++++++  ++o+++++++++++++++++++++o+++++  +++++++++++++ ##+++++++++oooo++++++++++++++++",
"+++++++++++++++++++++++++++++++ ++++++++++++++++++ oo++++++++++++++++++++++o++++++ +++++++++++++ +++++++     +++++++++++++++++++",
"++++++++++++++++++++++++++++++ ++++++++++++ooooo++  +++++++++++++++++++++++o++++++ +++++++++++++ +++++  #####   ++++++++++++++++",
"++++++++++++++++++++++++++++++ ++++++++++++++++oo++  +++++++++++++++++++++++++++++ +++++++++++++ ++   ###+++###         ++++++++",
"+++++++++oooooo++o++++++++++  ++++++++++++++++++oo++  ++++++++++++++++++++++++++++ ++++++oooooo+   ####++++++++++++++++  +++++++",
"OOO+++++++oo++ooo++++++OOOO  oooo++++++++++++++++o+++  +++++++++++++++++++++++++++ +++++++oo++o   ####+++++++++++++++++++ ++++++",
"  OOOO++++++++++++++++OOO  ooo+++++++++++++++++++o++++ ++++++++++++++++++++++++++ OOOO+++++++++  ##+++++++++++++++++++++++ +++++",
"@ OOOOOOOO++++++++++OOO  ++o+++++++++++++++++++++o++++  +++++++++++++++++++++++++ OOOOOOOO+++++  #++++++++++++++++++++++++  ++++",
"@@ OOOOOOOOOOOOOOOOOO  ++++o+++++++++++++++++++++o+++++  +++oooooo++o++++++++++  @ OOOOOOOOOO  ###+++++++++++++++++++++++++ ++++",
"@@@ OOOOO     OOO    ++++oo++++++++++++++++++++++o++++++ ++++oo++ooo++++++O     @@@ OOOOOOOO ###++++++++++++++++++++ooooo++  +++",
"@@@      #####   XX +++++o+++++++++++++++++++++++o++++++ ++++++++++++++++  #####        OOO ##++++++++++++++++++++++++++oo++  ++",
"@@@    ###+++###         o++++++++++++++++++++++++++++++ OOOO+++++++++   ###+++###          ##+++++++++++++++++++++++++++oo++  +",
"@@  ####++++++++++++++++  ++++++++++++++++++++++++++++++ OOOOOOOOOOO  ####++++++++++++++++  #+++++++++oooo++++++++++++++++o+++  ",
"@@ ####+++++++++++++++++++ +++++++++++++++++++++++++++++ OOOOOOOOOOO ####+++++++++++++++++++ +++++++ooo+++++++++++++++++++o++++ ",
"@ ##+++++++++++++++++++++++ +++++++++++++++++++++++++++    OOOOOO   ##+++++++++++++++++++++++ ++++++o+++++++++++++++++++++o++++ ",
"  #++++++++++++++++++++++++  ++++++++++++++++++++++++++ XX       X  #++++++++++++++++++++++++  +++++o+++++++++++++++++++++o+++++",
"###+++++++++++++++++++++++++ +++++oooooo++o++++++      XXXXX @ X  ###+++++++++++++++++++++++++ +++oo++++++++++++++++++++++o+++++",
"#++++++++++++++++++++ooooo++  +++++oo++ooo+++++  #####   .XXX   ###++++++++++++++++++++ooooo++  ++o+++++++++++++++++++++++o+++++",
"+++++++++++++++++++++++++oo++  +++++++++++++   ###+++###         ++++++++++++++++++++++++++oo++  +o+++++++++++++++++++++++++++++",
"++++++++++++++++++++++++++oo++  OOO+++++++  ####++++++++++++++++  ++++++++++++++++++++++++++oo++  ++++++++++++++++++++++++++++++",
"+++++++oooo++++++++++++++++o+++  OOOOOOOOO ####+++++++++++++++++++ ++++++oooo++++++++++++++++o+++  +++++++++++++++++++++++++++++",
"+++++ooo+++++++++++++++++++o++++ OOOOOOOO ##+++++++++++++++++++++++ +++ooo+++++++++++++++++++o++++ +++++++++++++++++++++++++++++",
"+++++o+++++++++++++++++++++o++++  OOOOO   #++++++++++++++++++++++++  ++o+++++++++++++++++++++o++++  ++++++++++++++++++++++++++++",
"+++++o+++++++++++++++++++++o+++++       ###+++++++++++++++++++++++++ ++o+++++++++++++++++++++o+++++  ++++++oooooo++o++++++++++  ",
"+++oo++++++++++++++++++++++o++++++ @  ###++++++++++++++++++++ooooo++  o++++++++++++++++++++++o++++++ +++++++oo++ooo++++++OOOO  @",
"+++o+++++++++++++++++++++++o++++++   ##++++++++++++++++++++++++++oo++  ++++++++++++++++++++++o++++++ OOO++++++++++++++++OOO  @@@",
"+++o++++++++++++++++++++++++++++++   ##+++++++++++++++++++++++++++oo++  ++++++++++++++++++++++++++++ OOOOOOO     +++++OOO  @@@@@",
"++++++++++++++++++++++++++++++++++  ##+++++++++oooo++++++++++++++++o+++  +++++++++++++++++++++++++++ OOOOO  #####   OOO  @@@@@@@",
"++++++++++++++++++++++++++++++++++  +++++++++ooo+++++++++++++++++++o++++ +++++++++++++++++++++++++++  O   ###+++###         @@@@",
"+++++++++++++++++++++++++++++++++ X +++++++++o+++++++++++++++++++++o++++  +++++++++++++++++++++++++ @  ####++++++++++++++++  @@@",
"+++++++++++++++++++++++++++++++++ X +++++++++o+++++++++++++++++++++o+++++  ++++++++++++++++++++++++ @ ####+++++++++++++++++++ @@",
"++++++++++++oooooo++o++++++++++  .X +++++++oo++++++++++++++++++++++o++++++ +++oooooo++o++++++++++  @ ##+++++++++++++++++++++++ @",
"   OOO+++++++oo++ooo++++++OOOO  X.  +++++++o+++++++++++++++++++++++o++++++ ++++oo++ooo++++++OOOO  @  #++++++++++++++++++++++++  ",
"@@   OOOO++++++++++++     OO  @ XX ++++++++o++++++++++++++++++++++++++++++ ++++++++++++++++OOO  @  ###+++++++++++++++++++++++++ ",
"@@@@ OOOOOOOO++++++  #####   @@ XX +++++++++++++++++++++++++++++++++++++++ OOOO++++++++++OOO  @@ ###++++++++++++++++++++ooooo++ ",
"@@@@@ OOOOOOOOOO   ###+++###         +++++++++++++++++++++++++++++++++++++ OOOOOOOOOOOOOOO  @@@ ##++++++++++++++++++++++++++oo++",
"@@@@@@ OOOOOOO  ####++++++++++++++++  +++++++++++++++++++++++++++++++++++ OOOOOOO         @@@@@ ##+++++++++++++++++++++++++++oo+",
"@@@@@@     OOO ####+++++++++++++++++++ ++++++++++++++++++++++++++++++++++    OO  #####   @@@@@ ##+++++++++oooo++++++++++++++++o+",
"@@@@@@ XXX    ##+++++++++++++++++++++++ ++++++++++++oooooo++o++++++++++  XXX   ###+++###         +++++++ooo+++++++++++++++++++o+",
"@@@@@@ XXXXX  #++++++++++++++++++++++++    OOO+++++++oo++ooo++++++OOOO   X  ####++++++++++++++++  ++++++o+++++++++++++++++++++o+",
"@@@@@@ XX.  ###+++++++++++++++++++++++++ X   OOOO++     +++++++++OOO  @@ X ####+++++++++++++++++++ +++++o+++++++++++++++++++++o+",
"@@@@@@ XX ###++++++++++++++++++++ooooo++   @ OOOO  #####   ++++OOO  @@@@  ##+++++++++++++++++++++++ ++oo++++++++++++++++++++++o+",
"@@@@@@@  ##++++++++++++++++++++++++++oo++  @@    ###+++###         @@@@@  #++++++++++++++++++++++++  +o+++++++++++++++++++++++o+",
"@@@@@@@  ##+++++++++++++++++++++++++++oo++    ####++++++++++++++++  @@  ###+++++++++++++++++++++++++ +o+++++++++++++++++++++++++",
"@@@@@@@ ##+++++++++oooo++++++++++++++++o+++  ####+++++++++++++++++++  ###++++++++++++++++++++ooooo++  ++++++++++++++++++++++++++",
"@@@@@@@ +++++++++ooo+++++++++++++++++++o++++ #+++++++++++++++++++++++ #++++++++++++++++++++++++++oo++  +++++++++++++++++++++++++",
"@@@@@@@ +++++++++o+++++++++++++++++++++o++++  +++++++++++++++++++++++  +++++++++++++++++++++++++++oo++  ++++++++++++++++++++++++",
"@@@@@@@ +++++++++o+++++++++++++++++++++o+++++  +++++++++++++++++++++++ ++++++++oooo++++++++++++++++o+++  +++++++++++++++++++++++",
"@@@@@@@ +++++++oo++++++++++++++++++++++o++++++ ++++++++++++++++ooooo++  +++++ooo+++++++++++++++++++o++++ ++++++oooooo++o++++++++",
"@@@@@@  +++++++o+++++++++++++++++++++++o++++++ ++++++++++++++++++++oo++  ++++o+++++++++++++++++++++o++++  ++++++oo++ooo++++++OOO",
"@@@@@@ ++++++++o++++++++++++++++++++++++++++++ +++++++++++++++++++++oo++  +++o+++++++++++++++++++++o+++++  O++++++++++++++++OOO ",
"@@@@@@  ++++++++++++++++++++++++++++++++++++++ ++oooo++++++++++++++++o+++  oo++++++++++++++++++++++o++++++ OOOOO++++++++++OOO  @",
"@@@@@@@ ++++++++++++++++++++++++++++++++++++++ ooo+++++++++++++++++++o++++ o+++++++++++++++++++++++o++++++ OOOOOOOOOOOOOOOO  @@@",
"@@@@@@@  ++++++++++++++++++++++++++++++++++++ +o+++++++++++++++++++++o++++  ++++++++++++++++++++++++++++++ OOOOOOOOOOOO    @@@@@",
"@@@@@@@@  +++++++++++++++++++++++++++++++++++ +o+++++++++++++++++++++o+++++  +++++++++++++++++++++++++++++    OOOOOO   XX @@@@@@",
"@@@@@@@@@  +++++++++++++oooooo++o++++++++++  oo++++++++++++++++++++++o++++++ +++++++++++++++++++++++++++++ XX       XX XX @@@@@@",
"@@@@@@@@@@@    OOO+++++++oo++ooo++++++OOOO  +o+++++++++++++++++++++++o++++++ ++++++++++++++++++++++++++++ XXXXX @ XXX.XX @@@@@@@",
"@@@@@@@@@@@@@@   OOOO++++++++++++++++OOO  +++o++++++++++++++++++++++++++++++ ++++++++++++++++++++++++++++ XX.XXX  XXX.X @@@@@@@@",
"@@@@@@@@@@@@@@@@ OOOOOOOO++++++++++OOO  +++++++++++++ ++++++++++++++++++++++ +++++++oooooo++o++++++++++   XX.XXX XXXX.X @@@@@@@@",
"@@@@@@@@@@@@@@@@@ OOOOOOOOOOOOOOOOOO  +++++++++++++    +++++++++++++++++++++ O+++++++oo++ooo++++++OOOO  @ XX..XX XXX.. @@@@@@@@@",
"@@@@@@@@@@@@@@@@@@ OOOOOOOOOOOOO    @ ++++++++++++  XX  ++++++++++++++++++   OOOO++++++++++++++++OOO  @@@@ XX.XX XX..X @@@@@@@@@",
"@@@@@@@@@@@@@@@@@@     OOOOOO   XX @@@ ++++++++++  XXXX    +++++++++++++   @ OOOOOOOO++++++++++OOO  @@@@@@ XX.XXXXX.XX @@@@@@@@@",
"@@@@@@@@@@@@@@@@@@ XXX       XX XX @@@@  +++++++  XXXXXXXX       ++++   @@@@@ OOOOOOOOOOOOOOOOOO  @@@@@@@@ XX..XXXX.XX @@@@@@@@@",
"@@@@@@@@@@@@@@@@@@ XXXXX @ XXX.XX @@@@@@@        XXX.XXXXXXXXXXX      @@@@@@@@ OOOOOOOOOOOOO    @@@@@@@@@@@ XXXXXXXXX @@@@@@@@@@",
"@@@@@@@@@@@@@@@@@@ XX.XXX  XXX.X @@@@@@@@@@@@@@@ XXX..XXXXXXXXXXX @@@@@@@@@@@@     OOOOOO   XX @@@@@@@@@@@@ XXXX..XXX @@@@@@@@@@",
"@@@@@@@@@@@@@@@@@@ XX.XXX XXXX.X @@@@@@@@@@@@@@@@ XXX.XXXXX..XXX @@@@@@@@@@@@@ XXX       XX XX @@@@@@@@@@@@@ XXXX.XXX @@@@@@@@@@",
"@@@@@@@@@@@@@@@@@@@ XXXXXXXXXXX @@@@@@@@@@@@@@@@@ XXX.XXXX..XXX @@@@@@@@@@@@@@ XXXXX @ XXX.XX @@@@@@@@@@@@@@ XXXXX.XX @@@@@@@@@@",
"@@@@@@@@@@@@@@@@@@@ XXXXX.XX.XX @@@@@@@@@@@@@@@@@ XXXXXXXX.XXXX @@@@@@@@@@@@@@ XX.XXX  XXX.X @@@@@@@@@@@@@@@ XXXXX.XX @@@@@@@@@@"
};
